PathFileType	4	(X/Y/Z)	s05c0103.trc
DataRate	CameraRate	NumFrames	NumMarkers	Units	OrigDataRate	OrigDataStartFrame	OrigNumFrames
200	200	4	49	mm	200	1250	2000
Frame#	Time	racr			lacr			c7			jug			rlel			rdr			llel			ldr			s2			lic			ric			lasi			rasi			rpsi			lpsi			rgt			lgt			rth1			rth2			rth3			rth4			rlfc			rsh1			rsh2			rsh3			rsh4			rlmal			rmmal			rcal			rtoe			rmt5			lth1			lth2			lth4			lth3			llfc			lmfc			lsh1			lsh2			lsh3			lsh4			llmal			lmmal			lcal			ltoe			lmt5			SBIKE			LBIKE			RBIKE			
		X1	Y1	Z1	X2	Y2	Z2	X3	Y3	Z3	X4	Y4	Z4	X5	Y5	Z5	X6	Y6	Z6	X7	Y7	Z7	X8	Y8	Z8	X9	Y9	Z9	X10	Y10	Z10	X11	Y11	Z11	X12	Y12	Z12	X13	Y13	Z13	X14	Y14	Z14	X15	Y15	Z15	X16	Y16	Z16	X17	Y17	Z17	X18	Y18	Z18	X19	Y19	Z19	X20	Y20	Z20	X21	Y21	Z21	X22	Y22	Z22	X23	Y23	Z23	X24	Y24	Z24	X25	Y25	Z25	X26	Y26	Z26	X27	Y27	Z27	X28	Y28	Z28	X29	Y29	Z29	X30	Y30	Z30	X31	Y31	Z31	X32	Y32	Z32	X33	Y33	Z33	X34	Y34	Z34	X35	Y35	Z35	X36	Y36	Z36	X37	Y37	Z37	X38	Y38	Z38	X39	Y39	Z39	X40	Y40	Z40	X41	Y41	Z41	X42	Y42	Z42	X43	Y43	Z43	X44	Y44	Z44	X45	Y45	Z45	X46	Y46	Z46	X47	Y47	Z47	X48	Y48	Z48	X49	Y49	Z49	
1250	6.2500	485.149669	1239.090364	-172.902043	485.374137	1246.267540	-424.699899	476.028626	1310.276302	-301.262145	400.519671	1166.996031	-299.274921	502.332203	1030.490475	4.942178	691.861329	916.087863	-87.236368	466.185455	1026.001133	-611.275987	673.937989	933.944855	-489.319118	-106.651849	1171.429432	-286.188333	32.764406	1175.106637	-435.463499	43.061477	1188.242751	-149.870717	80.035466	1121.734739	-396.524996	82.827204	1128.249551	-176.996581	-69.630841	1219.268402	-246.418428	-68.438586	1218.988072	-333.642024	0.922108	1069.439157	-114.951320	-26.754168	1074.476535	-455.190809	101.719541	1006.957859	-97.408595	186.102556	978.545727	-93.814566	243.025470	911.360861	-92.477324	205.633704	1007.284457	-106.572412	352.093508	812.864683	-110.862077	262.541575	751.548963	-84.186851	219.137186	676.255727	-95.465539	144.622907	631.118925	-101.015006	242.086630	655.552508	-119.086093	56.523759	533.441541	-107.577722	85.702606	547.270371	-186.931332	-10.863238	565.084714	-153.997514	150.897064	316.201594	-156.532024	72.409703	381.690249	-90.305222	74.822475	963.888338	-470.567955	152.486742	927.203630	-464.961055	176.303651	953.002130	-451.547762	201.896786	851.507226	-460.229899	296.580624	743.156560	-423.369905	282.007568	728.148433	-317.259518	260.189807	619.648462	-450.360088	268.282151	533.114922	-438.747988	231.570173	452.420506	-440.565077	296.468449	531.164936	-412.681963	214.905175	328.894501	-435.209474	0.000000	0.000000	-0.000000	156.497861	282.592272	-391.628830	451.066944	291.811871	-406.383506	344.035140	255.917034	-465.796159	-219.861775	909.165785	-275.212027	-53.350669	79.056539	-474.694335	-53.359580	79.206605	-77.080542	
1251	6.2550	485.475960	1239.998741	-170.739221	486.999342	1246.301039	-422.789186	477.484167	1310.572754	-299.501719	401.035089	1167.800478	-297.176589	502.465677	1030.701393	5.737371	692.187867	916.294751	-87.202782	468.588571	1027.771591	-611.310365	674.653415	933.765098	-488.951612	-104.796262	1171.596326	-288.496184	35.343220	1174.439192	-436.721328	43.329622	1189.705448	-151.470309	82.351734	1120.948996	-397.309789	83.536843	1129.817694	-178.043305	-68.725761	1219.791693	-249.345507	-66.502484	1219.027750	-336.183376	2.355788	1072.532135	-115.479111	-25.087106	1073.227270	-455.987410	103.470237	1011.943701	-97.595058	188.331543	985.468906	-93.913636	246.834522	919.272698	-92.358660	207.303522	1014.267680	-107.277842	357.392226	822.130128	-110.014558	267.619204	760.753760	-83.952857	224.008149	685.773553	-95.172773	149.310483	641.057520	-101.010262	246.530013	665.531278	-118.656605	60.861571	543.586175	-107.866776	90.358819	557.274787	-187.116181	-6.563632	574.544401	-154.726254	155.181731	326.286242	-156.678937	76.798924	391.847994	-90.499403	74.406451	960.446179	-471.174817	150.875557	921.279908	-465.386019	175.454739	946.373186	-451.888794	197.877183	844.081557	-460.558453	289.190072	732.666156	-423.393992	273.205076	718.214226	-317.663254	253.273500	608.888511	-450.829275	262.236613	522.658940	-438.963874	226.509041	441.442935	-440.847662	290.540024	521.184964	-413.362099	210.589453	318.848643	-435.480980	0.000000	0.000000	-0.000000	152.259029	272.692544	-391.811171	446.894642	281.731088	-406.159338	339.871202	245.818694	-465.666064	-219.753188	909.290948	-275.168292	-53.323594	79.091048	-474.672174	-53.353836	79.213789	-77.068751	
1252	6.2600	485.672264	1240.582009	-169.013045	488.609086	1246.454657	-420.777557	478.926794	1310.830754	-297.751335	401.398553	1168.643040	-295.560055	502.851214	1030.879986	6.766547	692.453865	916.486170	-87.085690	471.202778	1029.646806	-611.151350	675.353150	933.572336	-488.569399	-103.071205	1171.997574	-291.098260	38.146604	1173.849462	-438.154322	43.672669	1191.273707	-153.092480	84.654319	1120.218676	-398.195217	84.123508	1131.230427	-178.950002	-67.135046	1220.366375	-251.677657	-64.629295	1218.954287	-338.561946	3.611169	1075.437153	-116.539069	-23.454057	1072.002476	-456.849997	105.121197	1017.173464	-98.011409	190.553626	992.256908	-94.233250	250.341102	927.232513	-91.906690	208.884724	1021.212413	-108.117508	362.430220	831.426382	-109.475846	272.760885	769.852744	-83.474943	228.912725	695.206003	-94.894031	154.086107	650.638620	-100.935916	251.295194	674.706985	-118.425703	65.138964	553.441066	-108.237271	94.655420	567.296414	-187.270790	-2.266636	584.250918	-155.036008	160.075360	336.330754	-156.937171	81.579177	401.760152	-90.790425	73.748316	956.914173	-471.756774	148.899157	915.436139	-465.896975	174.284531	939.706186	-452.348388	193.444726	836.753763	-460.904338	281.409001	722.412996	-423.569433	264.310415	708.489174	-318.209224	245.784055	598.569021	-451.497642	255.463382	512.514584	-439.302443	220.678078	430.880353	-441.126807	283.772983	511.380066	-413.485421	205.717632	309.231869	-435.729221	0.000000	0.000000	-0.000000	147.408446	263.244009	-391.991648	442.116703	271.924960	-405.963135	335.116040	236.034307	-465.533144	-219.696203	909.350373	-275.160148	-53.284425	79.130433	-474.692846	-53.318145	79.215984	-77.077843	
1253	6.2650	485.582201	1241.315087	-167.970359	490.136652	1246.612495	-418.860984	480.320634	1311.088002	-295.982379	401.440238	1169.644178	-294.174868	503.153019	1031.060408	7.876248	692.638023	916.724786	-86.926912	473.668787	1031.337535	-610.692942	676.184220	933.416432	-488.162542	-101.319218	1172.380543	-293.364912	41.011109	1173.273414	-439.576414	43.884913	1192.809997	-154.794176	86.951257	1119.657869	-398.973235	84.669880	1132.520272	-180.095719	-65.987594	1221.225308	-254.548461	-62.704806	1219.002845	-341.297496	4.717391	1078.602784	-117.367718	-21.803933	1070.792391	-457.697395	106.576326	1022.301610	-98.518084	192.607848	999.128324	-94.700878	253.649077	935.339545	-91.732147	210.372688	1028.197353	-109.069388	367.236748	840.694645	-109.267938	277.768546	778.853523	-83.082766	232.627591	703.919448	-95.322322	158.785472	660.073161	-101.084655	255.765251	683.856588	-118.500842	69.645238	562.931615	-108.523934	99.408059	576.943863	-187.428101	2.076756	593.641537	-155.465203	165.790740	346.478661	-157.081874	86.980208	411.442593	-90.976475	72.932740	953.383432	-472.501427	146.654059	909.556959	-466.403770	172.817459	933.014466	-452.964394	188.646507	829.416999	-461.048270	273.535381	712.564078	-423.779568	255.760586	698.510896	-319.036877	237.842118	588.724056	-452.122576	248.220537	502.921893	-439.678869	214.072496	420.961897	-441.310768	276.720648	501.876188	-413.763017	200.332987	300.148987	-435.965980	0.000000	0.000000	-0.000000	141.970982	254.413679	-392.229331	436.820186	262.283768	-405.732578	329.832956	226.610611	-465.428946	-219.624121	909.416575	-275.182101	-53.250322	79.139309	-474.661668	-53.279019	79.242411	-77.072219	
